<svg xmlns="http://www.w3.org/2000/svg" xmlns:xlink="http://www.w3.org/1999/xlink" fill="none" version="1.1" width="538.89501953125" height="654.1971435546875" viewBox="0 0 538.89501953125 654.1971435546875"><defs><filter id="master_svg0_1_00" filterUnits="objectBoundingBox" color-interpolation-filters="sRGB" x="-36" y="-36" width="303" height="546"><feFlood flood-opacity="0" result="BackgroundImageFix"/><feColorMatrix in="SourceAlpha" type="matrix" values="0 0 0 0 0 0 0 0 0 0 0 0 0 0 0 0 0 0 127 0"/><feOffset dy="4" dx="4"/><feGaussianBlur stdDeviation="10"/><feColorMatrix type="matrix" values="0 0 0 0 0 0 0 0 0 0 0 0 0 0 0 0 0 0 0.3019607961177826 0"/><feBlend mode="normal" in2="BackgroundImageFix" result="effect1_dropShadow"/><feBlend mode="normal" in="SourceGraphic" in2="effect1_dropShadow" result="shape"/></filter><filter id="master_svg1_1_67" filterUnits="objectBoundingBox" color-interpolation-filters="sRGB" x="-36" y="-36" width="303" height="546"><feFlood flood-opacity="0" result="BackgroundImageFix"/><feColorMatrix in="SourceAlpha" type="matrix" values="0 0 0 0 0 0 0 0 0 0 0 0 0 0 0 0 0 0 127 0"/><feOffset dy="4" dx="4"/><feGaussianBlur stdDeviation="10"/><feColorMatrix type="matrix" values="0 0 0 0 0 0 0 0 0 0 0 0 0 0 0 0 0 0 0.3019607961177826 0"/><feBlend mode="normal" in2="BackgroundImageFix" result="effect1_dropShadow"/><feBlend mode="normal" in="SourceGraphic" in2="effect1_dropShadow" result="shape"/><feGaussianBlur in="BackgroundImage" stdDeviation="5"/><feComposite in2="SourceAlpha" operator="in" result="effect2_foregroundBlur"/><feBlend mode="normal" in="SourceGraphic" in2="effect2_foregroundBlur" result="shape"/></filter></defs><g><g filter="url(#master_svg0_1_00)"><path d="M268.4602431640625,129.8304763183594Q268.8742431640625,130.3304763183594,269.2432431640625,130.86447631835938Q269.6132431640625,131.39847631835937,269.9352431640625,131.96147631835936Q270.2572431640625,132.52547631835938,270.5292431640625,133.11447631835938Q270.8012431640625,133.70447631835935,271.0222431640625,134.31547631835937Q271.24224316406253,134.92547631835936,271.40824316406247,135.55347631835937Q271.5752431640625,136.18047631835938,271.68724316406247,136.82047631835937Q271.7992431640625,137.45947631835938,271.8552431640625,138.10647631835937Q271.9112431640625,138.7534763183594,271.9112431640625,139.4024763183594L271.9112431640625,361.58647631835936Q271.9112431640625,362.23547631835936,271.8552431640625,362.88247631835935Q271.7992431640625,363.5294763183594,271.68724316406247,364.16847631835935Q271.5752431640625,364.8084763183594,271.40824316406247,365.43547631835935Q271.24224316406253,366.0634763183594,271.0222431640625,366.67347631835935Q270.8012431640625,367.2844763183594,270.5292431640625,367.87447631835937Q270.2572431640625,368.46347631835937,269.9352431640625,369.0274763183594Q269.6132431640625,369.5904763183594,269.2432431640625,370.12447631835937Q268.8742431640625,370.65847631835936,268.4602431640625,371.15847631835936L186.8982431640625,469.5614763183594Q186.6352431640625,469.8784763183594,186.3552431640625,470.18047631835935Q186.0752431640625,470.48347631835935,185.7792431640625,470.76947631835935Q185.48324316406251,471.05547631835935,185.1712431640625,471.3254763183594Q184.8602431640625,471.5954763183594,184.5342431640625,471.8474763183594Q184.2092431640625,472.10047631835937,183.86924316406248,472.33447631835935Q183.53024316406248,472.5684763183594,183.17924316406248,472.78347631835936Q182.82824316406248,472.9984763183594,182.46524316406249,473.1934763183594Q182.1022431640625,473.38947631835936,181.7292431640625,473.56447631835937Q181.3562431640625,473.7394763183594,180.9752431640625,473.89447631835935Q180.5932431640625,474.04847631835935,180.20324316406248,474.1814763183594Q179.8132431640625,474.3154763183594,179.4162431640625,474.4264763183594Q179.0202431640625,474.53847631835936,178.6182431640625,474.6284763183594Q178.21624316406252,474.71847631835936,177.80924316406248,474.7854763183594Q177.4032431640625,474.85347631835936,176.9932431640625,474.89847631835937Q176.5842431640625,474.9434763183594,176.17224316406248,474.96647631835935Q175.7612431640625,474.9884763183594,175.3492431640625,474.9884763183594Q174.9372431640625,474.9884763183594,174.52624316406252,474.96647631835935Q174.1142431640625,474.9434763183594,173.7052431640625,474.89847631835937Q173.2952431640625,474.85347631835936,172.88924316406252,474.7854763183594Q172.48224316406248,474.71847631835936,172.0802431640625,474.6284763183594Q171.6782431640625,474.53847631835936,171.2822431640625,474.4264763183594Q170.8852431640625,474.3154763183594,170.49524316406252,474.1814763183594Q170.1052431640625,474.04847631835935,169.7232431640625,473.89447631835935Q169.3422431640625,473.7394763183594,168.9692431640625,473.56447631835937Q168.5962431640625,473.38947631835936,168.23324316406251,473.1934763183594Q167.87024316406252,472.9984763183594,167.51924316406252,472.78347631835936Q167.16824316406252,472.5684763183594,166.82924316406252,472.33447631835935Q166.4892431640625,472.10047631835937,166.1642431640625,471.8474763183594Q165.8382431640625,471.5954763183594,165.5272431640625,471.3254763183594Q165.21524316406249,471.05547631835935,164.9192431640625,470.76947631835935Q164.6232431640625,470.48347631835935,164.3432431640625,470.18047631835935Q164.0632431640625,469.8784763183594,163.8005431640625,469.5614763183594L82.2387431640625,371.15847631835936Q81.8244431640625,370.65847631835936,81.4548431640625,370.12447631835937Q81.0852431640625,369.5904763183594,80.7631431640625,369.0274763183594Q80.4411431640625,368.46347631835937,80.1689431640625,367.87447631835937Q79.8968431640625,367.2844763183594,79.6765431640625,366.67347631835935Q79.4563431640625,366.0634763183594,79.2897431640625,365.43547631835935Q79.1231431640625,364.8084763183594,79.0113431640625,364.16847631835935Q78.8996431640625,363.5294763183594,78.8435431640625,362.88247631835935Q78.7874431640625,362.23547631835936,78.7874431640625,361.58647631835936L78.7874431640625,139.4024763183594Q78.7874431640625,138.7534763183594,78.8435431640625,138.10647631835937Q78.8996431640625,137.45947631835938,79.0113431640625,136.82047631835937Q79.1231431640625,136.18047631835938,79.2897431640625,135.55347631835937Q79.4563431640625,134.92547631835936,79.6765431640625,134.31547631835937Q79.8968431640625,133.70447631835935,80.1689431640625,133.11447631835938Q80.4411431640625,132.52547631835938,80.7631431640625,131.96147631835936Q81.0852431640625,131.39847631835937,81.4548431640625,130.86447631835938Q81.8244431640625,130.3304763183594,82.2387431640625,129.8304763183594L163.8005431640625,31.427776318359374Q164.0632431640625,31.110576318359374,164.3432431640625,30.808276318359376Q164.6232431640625,30.505976318359373,164.9192431640625,30.219476318359376Q165.21524316406249,29.933076318359376,165.5272431640625,29.663276318359372Q165.8382431640625,29.393476318359376,166.1642431640625,29.141176318359374Q166.4892431640625,28.888876318359372,166.82924316406252,28.654876318359374Q167.16824316406252,28.420876318359376,167.51924316406252,28.205776318359376Q167.87024316406252,27.990676318359377,168.23324316406251,27.795276318359377Q168.5962431640625,27.599876318359374,168.9692431640625,27.424586318359374Q169.3422431640625,27.249336318359376,169.7232431640625,27.094826318359374Q170.1052431640625,26.940316318359375,170.49524316406252,26.806996318359374Q170.8852431640625,26.673676318359377,171.2822431640625,26.561966318359374Q171.6782431640625,26.450246318359376,172.0802431640625,26.360466318359375Q172.48224316406248,26.270686318359374,172.88924316406252,26.203116318359378Q173.2952431640625,26.135546318359374,173.7052431640625,26.090386318359375Q174.1142431640625,26.045216318359373,174.52624316406252,26.022606318359376Q174.9372431640625,25.999986318359376,175.3492431640625,25.999986318359376Q175.7612431640625,25.999986318359376,176.17224316406248,26.022606318359376Q176.5842431640625,26.045216318359373,176.9932431640625,26.090386318359375Q177.4032431640625,26.135546318359374,177.80924316406248,26.203116318359378Q178.21624316406252,26.270686318359374,178.6182431640625,26.360466318359375Q179.0202431640625,26.450246318359376,179.4162431640625,26.561966318359374Q179.8132431640625,26.673676318359377,180.20324316406248,26.806996318359374Q180.5932431640625,26.940316318359375,180.9752431640625,27.094826318359374Q181.3562431640625,27.249336318359376,181.7292431640625,27.424586318359374Q182.1022431640625,27.599876318359374,182.46524316406249,27.795276318359377Q182.82824316406248,27.990676318359377,183.17924316406248,28.205776318359376Q183.53024316406248,28.420876318359376,183.86924316406248,28.654876318359374Q184.2092431640625,28.888876318359372,184.5342431640625,29.141176318359374Q184.8602431640625,29.393476318359376,185.1712431640625,29.663276318359372Q185.48324316406251,29.933076318359376,185.7792431640625,30.219476318359376Q186.0752431640625,30.505976318359373,186.3552431640625,30.808276318359376Q186.6352431640625,31.110576318359374,186.8982431640625,31.427776318359374L268.4602431640625,129.8304763183594Z" fill="#76A2D7" fill-opacity="0.800000011920929"/></g><g transform="matrix(0.7071067690849304,0.7071067690849304,-0.7071067690849304,0.7071067690849304,199.89188165442647,-211.5927266979361)" filter="url(#master_svg1_1_67)"><path d="M559.9719619140625,247.8304763183594Q560.3859619140625,248.3304763183594,560.7549619140625,248.86447631835938Q561.1249619140625,249.39847631835937,561.4469619140625,249.96147631835936Q561.7689619140625,250.52547631835938,562.0409619140626,251.11447631835938Q562.3129619140625,251.70447631835935,562.5339619140625,252.31547631835937Q562.7539619140625,252.92547631835936,562.9199619140625,253.55347631835937Q563.0869619140625,254.18047631835938,563.1989619140625,254.82047631835937Q563.3109619140625,255.45947631835938,563.3669619140625,256.10647631835934Q563.4229619140625,256.7534763183594,563.4229619140625,257.4024763183594L563.4229619140625,479.58647631835936Q563.4229619140625,480.23547631835936,563.3669619140625,480.88247631835935Q563.3109619140625,481.5294763183594,563.1989619140625,482.16847631835935Q563.0869619140625,482.8084763183594,562.9199619140625,483.43547631835935Q562.7539619140625,484.0634763183594,562.5339619140625,484.67347631835935Q562.3129619140625,485.2844763183594,562.0409619140626,485.87447631835937Q561.7689619140625,486.46347631835937,561.4469619140625,487.0274763183594Q561.1249619140625,487.5904763183594,560.7549619140625,488.12447631835937Q560.3859619140625,488.65847631835936,559.9719619140625,489.15847631835936L478.4099619140625,587.5614763183594Q478.1469619140625,587.8784763183594,477.8669619140625,588.1804763183593Q477.5869619140625,588.4834763183594,477.2909619140625,588.7694763183594Q476.9949619140625,589.0554763183593,476.6829619140625,589.3254763183594Q476.37196191406247,589.5954763183594,476.0459619140625,589.8474763183594Q475.7209619140625,590.1004763183594,475.3809619140625,590.3344763183593Q475.0419619140625,590.5684763183594,474.6909619140625,590.7834763183594Q474.3399619140625,590.9984763183594,473.9769619140625,591.1934763183594Q473.6139619140625,591.3894763183594,473.2409619140625,591.5644763183593Q472.8679619140625,591.7394763183594,472.4869619140625,591.8944763183594Q472.1049619140625,592.0484763183593,471.7149619140625,592.1814763183594Q471.3249619140625,592.3154763183594,470.9279619140625,592.4264763183594Q470.5319619140625,592.5384763183594,470.1299619140625,592.6284763183594Q469.7279619140625,592.7184763183593,469.3209619140625,592.7854763183593Q468.9149619140625,592.8534763183593,468.5049619140625,592.8984763183594Q468.0959619140625,592.9434763183594,467.6839619140625,592.9664763183594Q467.27296191406253,592.9884763183594,466.8609619140625,592.9884763183594Q466.44896191406247,592.9884763183594,466.0379619140625,592.9664763183594Q465.6259619140625,592.9434763183594,465.2169619140625,592.8984763183594Q464.8069619140625,592.8534763183593,464.4009619140625,592.7854763183593Q463.9939619140625,592.7184763183593,463.5919619140625,592.6284763183594Q463.1899619140625,592.5384763183594,462.7939619140625,592.4264763183594Q462.3969619140625,592.3154763183594,462.0069619140625,592.1814763183594Q461.6169619140625,592.0484763183593,461.2349619140625,591.8944763183594Q460.8539619140625,591.7394763183594,460.4809619140625,591.5644763183593Q460.1079619140625,591.3894763183594,459.7449619140625,591.1934763183594Q459.3819619140625,590.9984763183594,459.0309619140625,590.7834763183594Q458.6799619140625,590.5684763183594,458.3409619140625,590.3344763183593Q458.0009619140625,590.1004763183594,457.6759619140625,589.8474763183594Q457.34996191406253,589.5954763183594,457.0389619140625,589.3254763183594Q456.7269619140625,589.0554763183593,456.4309619140625,588.7694763183594Q456.1349619140625,588.4834763183594,455.8549619140625,588.1804763183593Q455.5749619140625,587.8784763183594,455.3122619140625,587.5614763183594L373.7504619140625,489.15847631835936Q373.3361619140625,488.65847631835936,372.9665619140625,488.12447631835937Q372.5969619140625,487.5904763183594,372.2748619140625,487.0274763183594Q371.9528619140625,486.46347631835937,371.6806619140625,485.87447631835937Q371.4085619140625,485.2844763183594,371.1882619140625,484.67347631835935Q370.9680619140625,484.0634763183594,370.8014619140625,483.43547631835935Q370.6348619140625,482.8084763183594,370.5230619140625,482.16847631835935Q370.4113619140625,481.5294763183594,370.3552619140625,480.88247631835935Q370.2991619140625,480.23547631835936,370.2991619140625,479.58647631835936L370.2991619140625,257.4024763183594Q370.2991619140625,256.7534763183594,370.3552619140625,256.10647631835934Q370.4113619140625,255.45947631835938,370.5230619140625,254.82047631835937Q370.6348619140625,254.18047631835938,370.8014619140625,253.55347631835937Q370.9680619140625,252.92547631835936,371.1882619140625,252.31547631835937Q371.4085619140625,251.70447631835935,371.6806619140625,251.11447631835938Q371.9528619140625,250.52547631835938,372.2748619140625,249.96147631835936Q372.5969619140625,249.39847631835937,372.9665619140625,248.86447631835938Q373.3361619140625,248.3304763183594,373.7504619140625,247.8304763183594L455.3122619140625,149.42777631835938Q455.5749619140625,149.11057631835936,455.8549619140625,148.8082763183594Q456.1349619140625,148.5059763183594,456.4309619140625,148.21947631835937Q456.7269619140625,147.93307631835938,457.0389619140625,147.66327631835938Q457.34996191406253,147.39347631835938,457.6759619140625,147.14117631835938Q458.0009619140625,146.88887631835937,458.3409619140625,146.65487631835938Q458.6799619140625,146.42087631835938,459.0309619140625,146.20577631835937Q459.3819619140625,145.99067631835936,459.7449619140625,145.79527631835938Q460.1079619140625,145.59987631835938,460.4809619140625,145.4245863183594Q460.8539619140625,145.24933631835938,461.2349619140625,145.09482631835937Q461.6169619140625,144.94031631835938,462.0069619140625,144.80699631835938Q462.3969619140625,144.67367631835938,462.7939619140625,144.56196631835937Q463.1899619140625,144.45024631835938,463.5919619140625,144.36046631835939Q463.9939619140625,144.27068631835937,464.4009619140625,144.20311631835938Q464.8069619140625,144.1355463183594,465.2169619140625,144.09038631835938Q465.6259619140625,144.04521631835937,466.0379619140625,144.02260631835938Q466.44896191406247,143.99998631835936,466.8609619140625,143.99998631835936Q467.27296191406253,143.99998631835936,467.6839619140625,144.02260631835938Q468.0959619140625,144.04521631835937,468.5049619140625,144.09038631835938Q468.9149619140625,144.1355463183594,469.3209619140625,144.20311631835938Q469.7279619140625,144.27068631835937,470.1299619140625,144.36046631835939Q470.5319619140625,144.45024631835938,470.9279619140625,144.56196631835937Q471.3249619140625,144.67367631835938,471.7149619140625,144.80699631835938Q472.1049619140625,144.94031631835938,472.4869619140625,145.09482631835937Q472.8679619140625,145.24933631835938,473.2409619140625,145.4245863183594Q473.6139619140625,145.59987631835938,473.9769619140625,145.79527631835938Q474.3399619140625,145.99067631835936,474.6909619140625,146.20577631835937Q475.0419619140625,146.42087631835938,475.3809619140625,146.65487631835938Q475.7209619140625,146.88887631835937,476.0459619140625,147.14117631835938Q476.37196191406247,147.39347631835938,476.6829619140625,147.66327631835938Q476.9949619140625,147.93307631835938,477.2909619140625,148.21947631835937Q477.5869619140625,148.5059763183594,477.8669619140625,148.8082763183594Q478.1469619140625,149.11057631835936,478.4099619140625,149.42777631835938L559.9719619140625,247.8304763183594Z" fill="#FCB7B7" fill-opacity="0.699999988079071"/></g></g></svg>